<?xml version="1.0" encoding="UTF-8" standalone="no"?>
<!-- Created with Inkscape (http://www.inkscape.org/) -->

<svg
   width="210mm"
   height="297mm"
   viewBox="0 0 210 297"
   version="1.1"
   id="svg1582"
   inkscape:version="1.1 (c68e22c387, 2021-05-23)"
   sodipodi:docname="homebutton.svg"
   xmlns:inkscape="http://www.inkscape.org/namespaces/inkscape"
   xmlns:sodipodi="http://sodipodi.sourceforge.net/DTD/sodipodi-0.dtd"
   xmlns="http://www.w3.org/2000/svg"
   xmlns:svg="http://www.w3.org/2000/svg">
  <sodipodi:namedview
     id="namedview1584"
     pagecolor="#ffffff"
     bordercolor="#666666"
     borderopacity="1.0"
     inkscape:pageshadow="2"
     inkscape:pageopacity="0.0"
     inkscape:pagecheckerboard="0"
     inkscape:document-units="mm"
     showgrid="false"
     inkscape:zoom="0.37059484"
     inkscape:cx="1204.8198"
     inkscape:cy="295.47092"
     inkscape:window-width="1920"
     inkscape:window-height="1017"
     inkscape:window-x="-8"
     inkscape:window-y="-8"
     inkscape:window-maximized="1"
     inkscape:current-layer="layer1" />
  <defs
     id="defs1579" />
  <g
     inkscape:label="Layer 1"
     inkscape:groupmode="layer"
     id="layer1">
    <path
       id="path4522"
       style="fill:#ffffff;stroke:#cccccc;stroke-width:22.6772;stroke-linecap:round;stroke-linejoin:round;stroke-miterlimit:4;stroke-dasharray:none;stroke-opacity:1;paint-order:normal"
       d="M 438.48438 233.4082 C 381.36899 295.02085 324.25405 356.63344 267.13867 418.24609 L 287.375 418.40625 L 287.375 592.29102 C 326.72328 591.93331 366.07164 591.57451 405.41992 591.2168 L 405.42969 591.61719 L 425.64258 591.0332 C 478.49345 590.55273 531.34445 590.07226 584.19531 589.5918 C 584.19531 533.30884 584.19531 477.0271 584.19531 420.74414 L 609.83008 420.94531 L 438.48438 233.4082 z "
       transform="scale(0.26458333)"
       inkscape:export-filename="C:\Users\umesh\quizapp\Assets\quizgame\homebutton.png"
       inkscape:export-xdpi="96"
       inkscape:export-ydpi="96" />
    <path
       id="rect945"
       style="fill:#ffffff;stroke:#cccccc;stroke-width:6;stroke-linecap:round;stroke-linejoin:round"
       d="m 275.37904,63.85478 c -2.37312,0 -4.28344,1.716501 -4.28344,3.848878 v 5.615678 h -16.21814 c -2.37314,0 -4.28346,1.7165 -4.28346,3.848877 v 78.905957 c 0,2.13238 1.91032,3.84888 4.28346,3.84888 h 72.10827 c 2.37313,0 4.28345,-1.7165 4.28345,-3.84888 V 77.168213 c 0,-2.132377 -1.91032,-3.848877 -4.28345,-3.848877 h -12.72688 v -5.615678 c 0,-2.132377 -1.91032,-3.848878 -4.28347,-3.848878 z"
       inkscape:export-filename="C:\Users\umesh\quizapp\Assets\quizgame\test.png"
       inkscape:export-xdpi="96"
       inkscape:export-ydpi="96" />
    <path
       style="fill:none;stroke:#cccccc;stroke-width:6;stroke-linecap:round;stroke-linejoin:round;stroke-opacity:1"
       d="m 260.99889,105.36048 47.70675,-0.45361"
       id="path1441"
       sodipodi:nodetypes="cc"
       inkscape:export-filename="C:\Users\umesh\quizapp\Assets\quizgame\test.png"
       inkscape:export-xdpi="96"
       inkscape:export-ydpi="96" />
    <path
       style="fill:none;stroke:#cccccc;stroke-width:6;stroke-linecap:round;stroke-linejoin:round;stroke-opacity:1"
       d="m 262.02979,120.78661 35.29587,-0.23321"
       id="path1834"
       sodipodi:nodetypes="cc"
       inkscape:export-filename="C:\Users\umesh\quizapp\Assets\quizgame\test.png"
       inkscape:export-xdpi="96"
       inkscape:export-ydpi="96" />
  </g>
</svg>
